# MagicaVoxel @ Ephtracy

# group
g hero

# material
mtllib hero.mtl
usemtl palette

# normals
vn -1 0 0
vn 1 0 0
vn 0 0 1
vn 0 0 -1
vn 0 -1 0
vn 0 1 0

# texcoords
vt 0.404297 0.5
vt 0.810547 0.5
vt 0.845703 0.5
vt 0.935547 0.5

# verts
v -13 14 1
v -13 14 -0
v -13 15 1
v -13 15 -0
v -12 13 2
v -12 13 -1
v -12 14 1
v -12 14 -0
v -12 15 1
v -12 15 -0
v -12 16 2
v -12 16 -1
v -12 17 1
v -12 17 -0
v -12 18 1
v -12 18 -0
v -11 11 1
v -11 11 -0
v -11 12 2
v -11 12 1
v -11 12 -0
v -11 12 -1
v -11 13 2
v -11 13 -1
v -11 16 2
v -11 16 -1
v -11 17 1
v -11 17 -0
v -11 18 2
v -11 18 1
v -11 18 -0
v -11 18 -1
v -11 20 1
v -11 20 -0
v -11 21 1
v -11 21 -0
v -10 11 2
v -10 11 1
v -10 11 -0
v -10 11 -1
v -10 12 2
v -10 12 1
v -10 12 -0
v -10 12 -1
v -10 18 2
v -10 18 -1
v -10 19 2
v -10 19 -1
v -10 20 2
v -10 20 1
v -10 20 -0
v -10 20 -1
v -10 21 2
v -10 21 1
v -10 21 -0
v -10 21 -1
v -9 19 2
v -9 19 -1
v -9 20 2
v -9 20 -1
v -6 0 5
v -6 0 -5
v -6 2 5
v -6 2 -5
v -6 3 7
v -6 3 6
v -6 4 7
v -6 4 6
v -6 5 6
v -6 5 -6
v -6 9 7
v -6 9 6
v -6 10 6
v -6 10 5
v -6 11 2
v -6 11 -1
v -6 12 6
v -6 12 5
v -6 13 7
v -6 13 6
v -6 15 6
v -6 15 2
v -6 15 -1
v -6 15 -6
v -5 2 3
v -5 2 -4
v -5 4 7
v -5 4 6
v -5 5 7
v -5 5 6
v -5 5 3
v -5 5 -4
v -4 5 7
v -4 5 6
v -4 9 7
v -4 9 6
v -1 3 7
v -1 3 6
v -1 5 6
v -1 9 7
v -1 9 6
v -1 10 7
v -1 10 5
v -1 12 7
v -1 12 5
v -1 13 7
v -1 13 6
v -1 15 6
v -1 15 -6
v -1 16 7
v -1 16 -6
v 1 0 5
v 1 0 -5
v 1 2 5
v 1 2 3
v 1 2 -4
v 1 2 -5
v 2 5 7
v 2 5 6
v 2 9 7
v 2 9 6
v 3 4 7
v 3 4 6
v 3 5 7
v 3 5 6
v 4 3 7
v 4 3 6
v 4 4 7
v 4 4 6
v 5 10 7
v 5 10 5
v 5 12 7
v 5 12 5
v 7 18 2
v 7 18 -1
v 7 20 2
v 7 20 -1
v 8 17 2
v 8 17 -1
v 8 18 2
v 8 18 -1
v 8 20 2
v 8 20 -1
v 8 21 2
v 8 21 -1
v 9 15 2
v 9 15 -1
v 9 17 2
v 9 17 -1
v -9 15 2
v -9 15 -1
v -9 17 2
v -9 17 -1
v -8 17 2
v -8 17 -1
v -8 18 2
v -8 18 -1
v -8 20 2
v -8 20 -1
v -8 21 2
v -8 21 -1
v -7 18 2
v -7 18 -1
v -7 20 2
v -7 20 -1
v -5 10 7
v -5 10 5
v -5 12 7
v -5 12 5
v -4 3 7
v -4 3 6
v -4 4 7
v -4 4 6
v -3 4 7
v -3 4 6
v -3 5 7
v -3 5 6
v -2 5 7
v -2 5 6
v -2 9 7
v -2 9 6
v -1 0 5
v -1 0 -5
v -1 2 5
v -1 2 3
v -1 2 -4
v -1 2 -5
v 1 3 7
v 1 3 6
v 1 5 6
v 1 9 7
v 1 9 6
v 1 10 7
v 1 10 5
v 1 12 7
v 1 12 5
v 1 13 7
v 1 13 6
v 1 15 6
v 1 15 -6
v 1 16 7
v 1 16 -6
v 4 5 7
v 4 5 6
v 4 9 7
v 4 9 6
v 5 2 3
v 5 2 -4
v 5 4 7
v 5 4 6
v 5 5 7
v 5 5 6
v 5 5 3
v 5 5 -4
v 6 0 5
v 6 0 -5
v 6 2 5
v 6 2 -5
v 6 3 7
v 6 3 6
v 6 4 7
v 6 4 6
v 6 5 6
v 6 5 -6
v 6 9 7
v 6 9 6
v 6 10 6
v 6 10 5
v 6 11 2
v 6 11 -1
v 6 12 6
v 6 12 5
v 6 13 7
v 6 13 6
v 6 15 6
v 6 15 2
v 6 15 -1
v 6 15 -6
v 9 19 2
v 9 19 -1
v 9 20 2
v 9 20 -1
v 10 11 2
v 10 11 1
v 10 11 -0
v 10 11 -1
v 10 12 2
v 10 12 1
v 10 12 -0
v 10 12 -1
v 10 18 2
v 10 18 -1
v 10 19 2
v 10 19 -1
v 10 20 2
v 10 20 1
v 10 20 -0
v 10 20 -1
v 10 21 2
v 10 21 1
v 10 21 -0
v 10 21 -1
v 11 11 1
v 11 11 -0
v 11 12 2
v 11 12 1
v 11 12 -0
v 11 12 -1
v 11 13 2
v 11 13 -1
v 11 16 2
v 11 16 -1
v 11 17 1
v 11 17 -0
v 11 18 2
v 11 18 1
v 11 18 -0
v 11 18 -1
v 11 20 1
v 11 20 -0
v 11 21 1
v 11 21 -0
v 12 13 2
v 12 13 -1
v 12 14 1
v 12 14 -0
v 12 15 1
v 12 15 -0
v 12 16 2
v 12 16 -1
v 12 17 1
v 12 17 -0
v 12 18 1
v 12 18 -0
v 13 14 1
v 13 14 -0
v 13 15 1
v 13 15 -0
v -6 3 7
v -6 4 7
v -6 9 7
v -6 13 7
v -5 4 7
v -5 5 7
v -5 10 7
v -5 12 7
v -4 3 7
v -4 4 7
v -4 5 7
v -4 9 7
v -3 4 7
v -3 5 7
v -2 5 7
v -2 9 7
v -1 3 7
v -1 9 7
v -1 10 7
v -1 12 7
v -1 13 7
v -1 16 7
v 1 3 7
v 1 9 7
v 1 10 7
v 1 12 7
v 1 13 7
v 1 16 7
v 2 5 7
v 2 9 7
v 3 4 7
v 3 5 7
v 4 3 7
v 4 4 7
v 4 5 7
v 4 9 7
v 5 4 7
v 5 5 7
v 5 10 7
v 5 12 7
v 6 3 7
v 6 4 7
v 6 9 7
v 6 13 7
v -6 5 6
v -6 9 6
v -6 13 6
v -6 15 6
v -5 5 6
v -4 5 6
v -4 9 6
v -2 5 6
v -2 9 6
v -1 5 6
v -1 9 6
v -1 13 6
v -1 15 6
v 1 5 6
v 1 9 6
v 1 13 6
v 1 15 6
v 2 5 6
v 2 9 6
v 4 5 6
v 4 9 6
v 5 5 6
v 6 5 6
v 6 9 6
v 6 13 6
v 6 15 6
v -6 0 5
v -6 2 5
v -5 10 5
v -5 12 5
v -1 0 5
v -1 2 5
v -1 10 5
v -1 12 5
v 1 0 5
v 1 2 5
v 1 10 5
v 1 12 5
v 5 10 5
v 5 12 5
v 6 0 5
v 6 2 5
v -5 2 3
v -5 5 3
v -1 2 3
v 1 2 3
v 5 2 3
v 5 5 3
v -12 13 2
v -12 16 2
v -11 12 2
v -11 13 2
v -11 16 2
v -11 18 2
v -10 11 2
v -10 12 2
v -10 18 2
v -10 19 2
v -10 20 2
v -10 21 2
v -9 15 2
v -9 17 2
v -9 19 2
v -9 20 2
v -8 17 2
v -8 18 2
v -8 20 2
v -8 21 2
v -7 18 2
v -7 20 2
v -6 11 2
v -6 15 2
v 6 11 2
v 6 15 2
v 7 18 2
v 7 20 2
v 8 17 2
v 8 18 2
v 8 20 2
v 8 21 2
v 9 15 2
v 9 17 2
v 9 19 2
v 9 20 2
v 10 11 2
v 10 12 2
v 10 18 2
v 10 19 2
v 10 20 2
v 10 21 2
v 11 12 2
v 11 13 2
v 11 16 2
v 11 18 2
v 12 13 2
v 12 16 2
v -13 14 1
v -13 15 1
v -12 14 1
v -12 15 1
v -12 17 1
v -12 18 1
v -11 11 1
v -11 12 1
v -11 17 1
v -11 18 1
v -11 20 1
v -11 21 1
v -10 11 1
v -10 12 1
v -10 20 1
v -10 21 1
v 10 11 1
v 10 12 1
v 10 20 1
v 10 21 1
v 11 11 1
v 11 12 1
v 11 17 1
v 11 18 1
v 11 20 1
v 11 21 1
v 12 14 1
v 12 15 1
v 12 17 1
v 12 18 1
v 13 14 1
v 13 15 1
v -6 3 6
v -6 4 6
v -5 4 6
v -5 5 6
v -4 3 6
v -4 4 6
v -3 4 6
v -3 5 6
v -1 3 6
v -1 5 6
v 1 3 6
v 1 5 6
v 3 4 6
v 3 5 6
v 4 3 6
v 4 4 6
v 5 4 6
v 5 5 6
v 6 3 6
v 6 4 6
v -13 14 -0
v -13 15 -0
v -12 14 -0
v -12 15 -0
v -12 17 -0
v -12 18 -0
v -11 11 -0
v -11 12 -0
v -11 17 -0
v -11 18 -0
v -11 20 -0
v -11 21 -0
v -10 11 -0
v -10 12 -0
v -10 20 -0
v -10 21 -0
v 10 11 -0
v 10 12 -0
v 10 20 -0
v 10 21 -0
v 11 11 -0
v 11 12 -0
v 11 17 -0
v 11 18 -0
v 11 20 -0
v 11 21 -0
v 12 14 -0
v 12 15 -0
v 12 17 -0
v 12 18 -0
v 13 14 -0
v 13 15 -0
v -12 13 -1
v -12 16 -1
v -11 12 -1
v -11 13 -1
v -11 16 -1
v -11 18 -1
v -10 11 -1
v -10 12 -1
v -10 18 -1
v -10 19 -1
v -10 20 -1
v -10 21 -1
v -9 15 -1
v -9 17 -1
v -9 19 -1
v -9 20 -1
v -8 17 -1
v -8 18 -1
v -8 20 -1
v -8 21 -1
v -7 18 -1
v -7 20 -1
v -6 11 -1
v -6 15 -1
v 6 11 -1
v 6 15 -1
v 7 18 -1
v 7 20 -1
v 8 17 -1
v 8 18 -1
v 8 20 -1
v 8 21 -1
v 9 15 -1
v 9 17 -1
v 9 19 -1
v 9 20 -1
v 10 11 -1
v 10 12 -1
v 10 18 -1
v 10 19 -1
v 10 20 -1
v 10 21 -1
v 11 12 -1
v 11 13 -1
v 11 16 -1
v 11 18 -1
v 12 13 -1
v 12 16 -1
v -5 2 -4
v -5 5 -4
v -1 2 -4
v 1 2 -4
v 5 2 -4
v 5 5 -4
v -6 0 -5
v -6 2 -5
v -1 0 -5
v -1 2 -5
v 1 0 -5
v 1 2 -5
v 6 0 -5
v 6 2 -5
v -6 5 -6
v -6 15 -6
v -1 15 -6
v -1 16 -6
v 1 15 -6
v 1 16 -6
v 6 5 -6
v 6 15 -6
v -6 0 5
v -1 0 5
v 1 0 5
v 6 0 5
v -6 0 -5
v -1 0 -5
v 1 0 -5
v 6 0 -5
v -1 2 3
v 1 2 3
v -1 2 -4
v 1 2 -4
v -6 3 7
v -4 3 7
v -1 3 7
v 1 3 7
v 4 3 7
v 6 3 7
v -6 3 6
v -4 3 6
v -1 3 6
v 1 3 6
v 4 3 6
v 6 3 6
v -4 4 7
v -3 4 7
v 3 4 7
v 4 4 7
v -4 4 6
v -3 4 6
v 3 4 6
v 4 4 6
v -3 5 7
v -2 5 7
v 2 5 7
v 3 5 7
v -6 5 6
v -5 5 6
v -3 5 6
v -2 5 6
v -1 5 6
v 1 5 6
v 2 5 6
v 3 5 6
v 5 5 6
v 6 5 6
v -5 5 3
v 5 5 3
v -5 5 -4
v 5 5 -4
v -6 5 -6
v 6 5 -6
v -6 9 7
v -4 9 7
v -2 9 7
v -1 9 7
v 1 9 7
v 2 9 7
v 4 9 7
v 6 9 7
v -6 9 6
v -4 9 6
v -2 9 6
v -1 9 6
v 1 9 6
v 2 9 6
v 4 9 6
v 6 9 6
v -10 11 2
v -6 11 2
v 6 11 2
v 10 11 2
v -11 11 1
v -10 11 1
v 10 11 1
v 11 11 1
v -11 11 -0
v -10 11 -0
v 10 11 -0
v 11 11 -0
v -10 11 -1
v -6 11 -1
v 6 11 -1
v 10 11 -1
v -5 12 7
v -1 12 7
v 1 12 7
v 5 12 7
v -5 12 5
v -1 12 5
v 1 12 5
v 5 12 5
v -11 12 2
v -10 12 2
v 10 12 2
v 11 12 2
v -11 12 1
v -10 12 1
v 10 12 1
v 11 12 1
v -11 12 -0
v -10 12 -0
v 10 12 -0
v 11 12 -0
v -11 12 -1
v -10 12 -1
v 10 12 -1
v 11 12 -1
v -12 13 2
v -11 13 2
v 11 13 2
v 12 13 2
v -12 13 -1
v -11 13 -1
v 11 13 -1
v 12 13 -1
v -13 14 1
v -12 14 1
v 12 14 1
v 13 14 1
v -13 14 -0
v -12 14 -0
v 12 14 -0
v 13 14 -0
v -9 17 2
v -8 17 2
v 8 17 2
v 9 17 2
v -12 17 1
v -11 17 1
v 11 17 1
v 12 17 1
v -12 17 -0
v -11 17 -0
v 11 17 -0
v 12 17 -0
v -9 17 -1
v -8 17 -1
v 8 17 -1
v 9 17 -1
v -8 18 2
v -7 18 2
v 7 18 2
v 8 18 2
v -8 18 -1
v -7 18 -1
v 7 18 -1
v 8 18 -1
v -10 20 2
v -9 20 2
v 9 20 2
v 10 20 2
v -11 20 1
v -10 20 1
v 10 20 1
v 11 20 1
v -11 20 -0
v -10 20 -0
v 10 20 -0
v 11 20 -0
v -10 20 -1
v -9 20 -1
v 9 20 -1
v 10 20 -1
v -6 2 5
v -1 2 5
v 1 2 5
v 6 2 5
v -5 2 3
v -1 2 3
v 1 2 3
v 5 2 3
v -5 2 -4
v -1 2 -4
v 1 2 -4
v 5 2 -4
v -6 2 -5
v -1 2 -5
v 1 2 -5
v 6 2 -5
v -6 4 7
v -5 4 7
v 5 4 7
v 6 4 7
v -6 4 6
v -5 4 6
v 5 4 6
v 6 4 6
v -5 5 7
v -4 5 7
v 4 5 7
v 5 5 7
v -5 5 6
v -4 5 6
v 4 5 6
v 5 5 6
v -5 10 7
v -1 10 7
v 1 10 7
v 5 10 7
v -5 10 5
v -1 10 5
v 1 10 5
v 5 10 5
v -6 13 7
v -1 13 7
v 1 13 7
v 6 13 7
v -6 13 6
v -1 13 6
v 1 13 6
v 6 13 6
v -6 15 6
v -1 15 6
v 1 15 6
v 6 15 6
v -9 15 2
v -6 15 2
v 6 15 2
v 9 15 2
v -13 15 1
v -12 15 1
v 12 15 1
v 13 15 1
v -13 15 -0
v -12 15 -0
v 12 15 -0
v 13 15 -0
v -9 15 -1
v -6 15 -1
v 6 15 -1
v 9 15 -1
v -6 15 -6
v -1 15 -6
v 1 15 -6
v 6 15 -6
v -1 16 7
v 1 16 7
v -12 16 2
v -11 16 2
v 11 16 2
v 12 16 2
v -12 16 -1
v -11 16 -1
v 11 16 -1
v 12 16 -1
v -1 16 -6
v 1 16 -6
v -11 18 2
v -10 18 2
v 10 18 2
v 11 18 2
v -12 18 1
v -11 18 1
v 11 18 1
v 12 18 1
v -12 18 -0
v -11 18 -0
v 11 18 -0
v 12 18 -0
v -11 18 -1
v -10 18 -1
v 10 18 -1
v 11 18 -1
v -10 19 2
v -9 19 2
v 9 19 2
v 10 19 2
v -10 19 -1
v -9 19 -1
v 9 19 -1
v 10 19 -1
v -8 20 2
v -7 20 2
v 7 20 2
v 8 20 2
v -8 20 -1
v -7 20 -1
v 7 20 -1
v 8 20 -1
v -10 21 2
v -8 21 2
v 8 21 2
v 10 21 2
v -11 21 1
v -10 21 1
v 10 21 1
v 11 21 1
v -11 21 -0
v -10 21 -0
v 10 21 -0
v 11 21 -0
v -10 21 -1
v -8 21 -1
v 8 21 -1
v 10 21 -1

# faces
f 3/3/1 2/3/1 1/3/1
f 4/3/1 2/3/1 3/3/1
f 7/2/1 6/2/1 5/2/1
f 8/2/1 6/2/1 7/2/1
f 9/2/1 7/2/1 5/2/1
f 10/2/1 6/2/1 8/2/1
f 11/2/1 9/2/1 5/2/1
f 11/2/1 10/2/1 9/2/1
f 12/2/1 6/2/1 10/2/1
f 12/2/1 10/2/1 11/2/1
f 15/3/1 14/3/1 13/3/1
f 16/3/1 14/3/1 15/3/1
f 20/3/1 18/3/1 17/3/1
f 21/3/1 18/3/1 20/3/1
f 23/2/1 20/2/1 19/2/1
f 23/2/1 22/2/1 21/2/1
f 23/2/1 21/2/1 20/2/1
f 24/2/1 22/2/1 23/2/1
f 27/2/1 26/2/1 25/2/1
f 28/2/1 26/2/1 27/2/1
f 29/2/1 27/2/1 25/2/1
f 30/2/1 27/2/1 29/2/1
f 31/2/1 26/2/1 28/2/1
f 32/2/1 26/2/1 31/2/1
f 35/3/1 34/3/1 33/3/1
f 36/3/1 34/3/1 35/3/1
f 41/2/1 38/2/1 37/2/1
f 42/2/1 38/2/1 41/2/1
f 43/2/1 40/2/1 39/2/1
f 44/2/1 40/2/1 43/2/1
f 47/2/1 46/2/1 45/2/1
f 48/2/1 46/2/1 47/2/1
f 53/2/1 50/2/1 49/2/1
f 54/2/1 50/2/1 53/2/1
f 55/2/1 52/2/1 51/2/1
f 56/2/1 52/2/1 55/2/1
f 59/2/1 58/2/1 57/2/1
f 60/2/1 58/2/1 59/2/1
f 63/2/1 62/2/1 61/2/1
f 64/2/1 62/2/1 63/2/1
f 67/1/1 66/1/1 65/1/1
f 68/1/1 66/1/1 67/1/1
f 72/2/1 70/2/1 69/2/1
f 73/2/1 70/2/1 72/2/1
f 73/1/1 72/1/1 71/1/1
f 74/2/1 70/2/1 73/2/1
f 75/2/1 70/2/1 74/2/1
f 76/2/1 70/2/1 75/2/1
f 77/1/1 73/1/1 71/1/1
f 77/1/1 74/1/1 73/1/1
f 78/2/1 75/2/1 74/2/1
f 78/1/1 74/1/1 77/1/1
f 79/1/1 77/1/1 71/1/1
f 80/2/1 78/2/1 77/2/1
f 80/1/1 77/1/1 79/1/1
f 81/2/1 78/2/1 80/2/1
f 82/2/1 75/2/1 78/2/1
f 82/2/1 78/2/1 81/2/1
f 83/2/1 70/2/1 76/2/1
f 84/2/1 70/2/1 83/2/1
f 89/1/1 88/1/1 87/1/1
f 90/1/1 88/1/1 89/1/1
f 91/4/1 86/4/1 85/4/1
f 92/4/1 86/4/1 91/4/1
f 95/1/1 94/1/1 93/1/1
f 96/1/1 94/1/1 95/1/1
f 99/1/1 98/1/1 97/1/1
f 100/1/1 99/1/1 97/1/1
f 101/1/1 99/1/1 100/1/1
f 104/1/1 103/1/1 102/1/1
f 105/1/1 103/1/1 104/1/1
f 108/1/1 107/1/1 106/1/1
f 110/1/1 108/1/1 106/1/1
f 110/1/1 109/1/1 108/1/1
f 111/1/1 109/1/1 110/1/1
f 114/2/1 113/2/1 112/2/1
f 115/2/1 113/2/1 114/2/1
f 116/2/1 113/2/1 115/2/1
f 117/2/1 113/2/1 116/2/1
f 120/1/1 119/1/1 118/1/1
f 121/1/1 119/1/1 120/1/1
f 124/1/1 123/1/1 122/1/1
f 125/1/1 123/1/1 124/1/1
f 128/1/1 127/1/1 126/1/1
f 129/1/1 127/1/1 128/1/1
f 132/1/1 131/1/1 130/1/1
f 133/1/1 131/1/1 132/1/1
f 136/2/1 135/2/1 134/2/1
f 137/2/1 135/2/1 136/2/1
f 140/2/1 139/2/1 138/2/1
f 141/2/1 139/2/1 140/2/1
f 144/2/1 143/2/1 142/2/1
f 145/2/1 143/2/1 144/2/1
f 148/2/1 147/2/1 146/2/1
f 149/2/1 147/2/1 148/2/1
f 150/2/2 151/2/2 152/2/2
f 152/2/2 151/2/2 153/2/2
f 154/2/2 155/2/2 156/2/2
f 156/2/2 155/2/2 157/2/2
f 158/2/2 159/2/2 160/2/2
f 160/2/2 159/2/2 161/2/2
f 162/2/2 163/2/2 164/2/2
f 164/2/2 163/2/2 165/2/2
f 166/1/2 167/1/2 168/1/2
f 168/1/2 167/1/2 169/1/2
f 170/1/2 171/1/2 172/1/2
f 172/1/2 171/1/2 173/1/2
f 174/1/2 175/1/2 176/1/2
f 176/1/2 175/1/2 177/1/2
f 178/1/2 179/1/2 180/1/2
f 180/1/2 179/1/2 181/1/2
f 182/2/2 183/2/2 184/2/2
f 184/2/2 183/2/2 185/2/2
f 185/2/2 183/2/2 186/2/2
f 186/2/2 183/2/2 187/2/2
f 188/1/2 189/1/2 190/1/2
f 188/1/2 190/1/2 191/1/2
f 191/1/2 190/1/2 192/1/2
f 193/1/2 194/1/2 195/1/2
f 195/1/2 194/1/2 196/1/2
f 197/1/2 198/1/2 199/1/2
f 197/1/2 199/1/2 201/1/2
f 199/1/2 200/1/2 201/1/2
f 201/1/2 200/1/2 202/1/2
f 203/1/2 204/1/2 205/1/2
f 205/1/2 204/1/2 206/1/2
f 209/1/2 210/1/2 211/1/2
f 211/1/2 210/1/2 212/1/2
f 207/4/2 208/4/2 213/4/2
f 213/4/2 208/4/2 214/4/2
f 215/2/2 216/2/2 217/2/2
f 217/2/2 216/2/2 218/2/2
f 219/1/2 220/1/2 221/1/2
f 221/1/2 220/1/2 222/1/2
f 223/2/2 224/2/2 226/2/2
f 226/2/2 224/2/2 227/2/2
f 225/1/2 226/1/2 227/1/2
f 227/2/2 224/2/2 228/2/2
f 228/2/2 224/2/2 229/2/2
f 229/2/2 224/2/2 230/2/2
f 225/1/2 227/1/2 231/1/2
f 227/1/2 228/1/2 231/1/2
f 228/2/2 229/2/2 232/2/2
f 231/1/2 228/1/2 232/1/2
f 225/1/2 231/1/2 233/1/2
f 231/2/2 232/2/2 234/2/2
f 233/1/2 231/1/2 234/1/2
f 234/2/2 232/2/2 235/2/2
f 232/2/2 229/2/2 236/2/2
f 235/2/2 232/2/2 236/2/2
f 230/2/2 224/2/2 237/2/2
f 237/2/2 224/2/2 238/2/2
f 239/2/2 240/2/2 241/2/2
f 241/2/2 240/2/2 242/2/2
f 243/2/2 244/2/2 247/2/2
f 247/2/2 244/2/2 248/2/2
f 245/2/2 246/2/2 249/2/2
f 249/2/2 246/2/2 250/2/2
f 251/2/2 252/2/2 253/2/2
f 253/2/2 252/2/2 254/2/2
f 255/2/2 256/2/2 259/2/2
f 259/2/2 256/2/2 260/2/2
f 257/2/2 258/2/2 261/2/2
f 261/2/2 258/2/2 262/2/2
f 263/3/2 264/3/2 266/3/2
f 266/3/2 264/3/2 267/3/2
f 265/2/2 266/2/2 269/2/2
f 267/2/2 268/2/2 269/2/2
f 266/2/2 267/2/2 269/2/2
f 269/2/2 268/2/2 270/2/2
f 271/2/2 272/2/2 273/2/2
f 273/2/2 272/2/2 274/2/2
f 271/2/2 273/2/2 275/2/2
f 275/2/2 273/2/2 276/2/2
f 274/2/2 272/2/2 277/2/2
f 277/2/2 272/2/2 278/2/2
f 279/3/2 280/3/2 281/3/2
f 281/3/2 280/3/2 282/3/2
f 283/2/2 284/2/2 285/2/2
f 285/2/2 284/2/2 286/2/2
f 283/2/2 285/2/2 287/2/2
f 286/2/2 284/2/2 288/2/2
f 283/2/2 287/2/2 289/2/2
f 287/2/2 288/2/2 289/2/2
f 288/2/2 284/2/2 290/2/2
f 289/2/2 288/2/2 290/2/2
f 291/3/2 292/3/2 293/3/2
f 293/3/2 292/3/2 294/3/2
f 295/3/2 296/3/2 297/3/2
f 297/3/2 296/3/2 298/3/2
f 303/1/3 300/1/3 299/1/3
f 305/1/3 302/1/3 301/1/3
f 306/1/3 302/1/3 305/1/3
f 307/1/3 304/1/3 303/1/3
f 307/1/3 303/1/3 299/1/3
f 308/1/3 304/1/3 307/1/3
f 309/1/3 304/1/3 308/1/3
f 310/1/3 305/1/3 301/1/3
f 311/1/3 309/1/3 308/1/3
f 311/1/3 310/1/3 309/1/3
f 312/1/3 310/1/3 311/1/3
f 313/1/3 310/1/3 312/1/3
f 314/1/3 305/1/3 310/1/3
f 314/1/3 310/1/3 313/1/3
f 316/1/3 305/1/3 314/1/3
f 317/1/3 305/1/3 316/1/3
f 318/1/3 302/1/3 306/1/3
f 319/1/3 302/1/3 318/1/3
f 321/1/3 317/1/3 316/1/3
f 321/1/3 320/1/3 319/1/3
f 321/1/3 319/1/3 318/1/3
f 321/1/3 318/1/3 317/1/3
f 321/1/3 316/1/3 315/1/3
f 322/1/3 320/1/3 321/1/3
f 323/1/3 320/1/3 322/1/3
f 324/1/3 320/1/3 323/1/3
f 325/1/3 320/1/3 324/1/3
f 326/1/3 320/1/3 325/1/3
f 328/1/3 323/1/3 322/1/3
f 330/1/3 328/1/3 327/1/3
f 332/1/3 330/1/3 329/1/3
f 333/1/3 328/1/3 330/1/3
f 333/1/3 330/1/3 332/1/3
f 334/1/3 323/1/3 328/1/3
f 334/1/3 328/1/3 333/1/3
f 335/1/3 333/1/3 332/1/3
f 335/1/3 332/1/3 331/1/3
f 336/1/3 333/1/3 335/1/3
f 337/1/3 323/1/3 334/1/3
f 338/1/3 325/1/3 324/1/3
f 339/1/3 335/1/3 331/1/3
f 340/1/3 335/1/3 339/1/3
f 341/1/3 337/1/3 334/1/3
f 341/1/3 338/1/3 337/1/3
f 342/1/3 325/1/3 338/1/3
f 342/1/3 338/1/3 341/1/3
f 347/2/3 344/2/3 343/2/3
f 348/2/3 344/2/3 347/2/3
f 349/2/3 344/2/3 348/2/3
f 352/2/3 351/2/3 350/2/3
f 353/2/3 351/2/3 352/2/3
f 354/2/3 346/2/3 345/2/3
f 355/2/3 346/2/3 354/2/3
f 360/2/3 357/2/3 356/2/3
f 361/2/3 357/2/3 360/2/3
f 364/2/3 363/2/3 362/2/3
f 365/2/3 363/2/3 364/2/3
f 366/2/3 363/2/3 365/2/3
f 367/2/3 359/2/3 358/2/3
f 368/2/3 359/2/3 367/2/3
f 373/2/3 370/2/3 369/2/3
f 374/2/3 370/2/3 373/2/3
f 375/2/3 372/2/3 371/2/3
f 376/2/3 372/2/3 375/2/3
f 381/2/3 380/2/3 379/2/3
f 382/2/3 380/2/3 381/2/3
f 383/2/3 378/2/3 377/2/3
f 384/2/3 378/2/3 383/2/3
f 387/4/3 386/4/3 385/4/3
f 388/4/3 386/4/3 387/4/3
f 389/4/3 386/4/3 388/4/3
f 390/4/3 386/4/3 389/4/3
f 394/2/3 392/2/3 391/2/3
f 395/2/3 392/2/3 394/2/3
f 398/2/3 394/2/3 393/2/3
f 398/2/3 396/2/3 395/2/3
f 398/2/3 395/2/3 394/2/3
f 399/2/3 396/2/3 398/2/3
f 403/2/3 398/2/3 397/2/3
f 403/2/3 399/2/3 398/2/3
f 403/2/3 400/2/3 399/2/3
f 404/2/3 400/2/3 403/2/3
f 405/2/3 400/2/3 404/2/3
f 406/2/3 402/2/3 401/2/3
f 407/2/3 405/2/3 404/2/3
f 407/2/3 406/2/3 405/2/3
f 408/2/3 406/2/3 407/2/3
f 409/2/3 402/2/3 406/2/3
f 409/2/3 406/2/3 408/2/3
f 410/2/3 402/2/3 409/2/3
f 411/2/3 409/2/3 408/2/3
f 412/2/3 409/2/3 411/2/3
f 413/2/3 403/2/3 397/2/3
f 414/2/3 403/2/3 413/2/3
f 420/2/3 418/2/3 417/2/3
f 421/2/3 418/2/3 420/2/3
f 423/2/3 416/2/3 415/2/3
f 424/2/3 421/2/3 420/2/3
f 424/2/3 422/2/3 421/2/3
f 424/2/3 420/2/3 419/2/3
f 425/2/3 422/2/3 424/2/3
f 426/2/3 422/2/3 425/2/3
f 427/2/3 423/2/3 415/2/3
f 427/2/3 424/2/3 423/2/3
f 427/2/3 425/2/3 424/2/3
f 428/2/3 425/2/3 427/2/3
f 429/2/3 425/2/3 428/2/3
f 430/2/3 425/2/3 429/2/3
f 431/2/3 422/2/3 426/2/3
f 432/2/3 422/2/3 431/2/3
f 433/2/3 429/2/3 428/2/3
f 434/2/3 429/2/3 433/2/3
f 435/2/3 429/2/3 434/2/3
f 436/2/3 429/2/3 435/2/3
f 437/2/3 435/2/3 434/2/3
f 438/2/3 435/2/3 437/2/3
f 441/3/3 440/3/3 439/3/3
f 442/3/3 440/3/3 441/3/3
f 447/3/3 444/3/3 443/3/3
f 448/3/3 444/3/3 447/3/3
f 451/3/3 446/3/3 445/3/3
f 452/3/3 446/3/3 451/3/3
f 453/3/3 450/3/3 449/3/3
f 454/3/3 450/3/3 453/3/3
f 459/3/3 456/3/3 455/3/3
f 460/3/3 456/3/3 459/3/3
f 463/3/3 458/3/3 457/3/3
f 464/3/3 458/3/3 463/3/3
f 467/3/3 462/3/3 461/3/3
f 468/3/3 462/3/3 467/3/3
f 469/3/3 466/3/3 465/3/3
f 470/3/3 466/3/3 469/3/3
f 471/1/4 472/1/4 473/1/4
f 471/1/4 473/1/4 475/1/4
f 473/1/4 474/1/4 475/1/4
f 475/1/4 474/1/4 476/1/4
f 476/1/4 474/1/4 477/1/4
f 477/1/4 474/1/4 478/1/4
f 479/1/4 480/1/4 481/1/4
f 481/1/4 480/1/4 482/1/4
f 483/1/4 484/1/4 486/1/4
f 486/1/4 484/1/4 487/1/4
f 485/1/4 486/1/4 487/1/4
f 487/1/4 484/1/4 488/1/4
f 485/1/4 487/1/4 489/1/4
f 489/1/4 487/1/4 490/1/4
f 491/3/4 492/3/4 493/3/4
f 493/3/4 492/3/4 494/3/4
f 495/3/4 496/3/4 499/3/4
f 499/3/4 496/3/4 500/3/4
f 497/3/4 498/3/4 503/3/4
f 503/3/4 498/3/4 504/3/4
f 501/3/4 502/3/4 505/3/4
f 505/3/4 502/3/4 506/3/4
f 507/3/4 508/3/4 511/3/4
f 511/3/4 508/3/4 512/3/4
f 509/3/4 510/3/4 515/3/4
f 515/3/4 510/3/4 516/3/4
f 513/3/4 514/3/4 519/3/4
f 519/3/4 514/3/4 520/3/4
f 517/3/4 518/3/4 521/3/4
f 521/3/4 518/3/4 522/3/4
f 523/2/4 524/2/4 526/2/4
f 526/2/4 524/2/4 527/2/4
f 525/2/4 526/2/4 530/2/4
f 527/2/4 528/2/4 530/2/4
f 526/2/4 527/2/4 530/2/4
f 530/2/4 528/2/4 531/2/4
f 529/2/4 530/2/4 535/2/4
f 530/2/4 531/2/4 535/2/4
f 531/2/4 532/2/4 535/2/4
f 535/2/4 532/2/4 536/2/4
f 536/2/4 532/2/4 537/2/4
f 533/2/4 534/2/4 538/2/4
f 536/2/4 537/2/4 539/2/4
f 537/2/4 538/2/4 539/2/4
f 539/2/4 538/2/4 540/2/4
f 538/2/4 534/2/4 541/2/4
f 540/2/4 538/2/4 541/2/4
f 541/2/4 534/2/4 542/2/4
f 540/2/4 541/2/4 543/2/4
f 543/2/4 541/2/4 544/2/4
f 529/2/4 535/2/4 545/2/4
f 545/2/4 535/2/4 546/2/4
f 549/2/4 550/2/4 552/2/4
f 552/2/4 550/2/4 553/2/4
f 547/2/4 548/2/4 555/2/4
f 552/2/4 553/2/4 556/2/4
f 553/2/4 554/2/4 556/2/4
f 551/2/4 552/2/4 556/2/4
f 556/2/4 554/2/4 557/2/4
f 557/2/4 554/2/4 558/2/4
f 547/2/4 555/2/4 559/2/4
f 555/2/4 556/2/4 559/2/4
f 556/2/4 557/2/4 559/2/4
f 559/2/4 557/2/4 560/2/4
f 560/2/4 557/2/4 561/2/4
f 561/2/4 557/2/4 562/2/4
f 558/2/4 554/2/4 563/2/4
f 563/2/4 554/2/4 564/2/4
f 560/2/4 561/2/4 565/2/4
f 565/2/4 561/2/4 566/2/4
f 566/2/4 561/2/4 567/2/4
f 567/2/4 561/2/4 568/2/4
f 566/2/4 567/2/4 569/2/4
f 569/2/4 567/2/4 570/2/4
f 571/4/4 572/4/4 573/4/4
f 573/4/4 572/4/4 574/4/4
f 574/4/4 572/4/4 575/4/4
f 575/4/4 572/4/4 576/4/4
f 577/2/4 578/2/4 579/2/4
f 579/2/4 578/2/4 580/2/4
f 581/2/4 582/2/4 583/2/4
f 583/2/4 582/2/4 584/2/4
f 585/2/4 586/2/4 587/2/4
f 585/2/4 587/2/4 589/2/4
f 587/1/4 588/1/4 589/1/4
f 589/1/4 588/1/4 590/1/4
f 585/2/4 589/2/4 591/2/4
f 591/2/4 589/2/4 592/2/4
f 597/2/5 594/2/5 593/2/5
f 598/2/5 594/2/5 597/2/5
f 599/2/5 596/2/5 595/2/5
f 600/2/5 596/2/5 599/2/5
f 603/4/5 602/4/5 601/4/5
f 604/4/5 602/4/5 603/4/5
f 611/1/5 606/1/5 605/1/5
f 612/1/5 606/1/5 611/1/5
f 613/1/5 608/1/5 607/1/5
f 614/1/5 608/1/5 613/1/5
f 615/1/5 610/1/5 609/1/5
f 616/1/5 610/1/5 615/1/5
f 621/1/5 618/1/5 617/1/5
f 622/1/5 618/1/5 621/1/5
f 623/1/5 620/1/5 619/1/5
f 624/1/5 620/1/5 623/1/5
f 631/1/5 626/1/5 625/1/5
f 632/1/5 626/1/5 631/1/5
f 635/1/5 628/1/5 627/1/5
f 636/1/5 628/1/5 635/1/5
f 639/2/5 630/2/5 629/2/5
f 639/2/5 638/2/5 637/2/5
f 639/2/5 637/2/5 636/2/5
f 639/2/5 636/2/5 635/2/5
f 639/2/5 635/2/5 634/2/5
f 639/2/5 634/2/5 633/2/5
f 639/2/5 633/2/5 632/2/5
f 639/2/5 632/2/5 631/2/5
f 639/2/5 631/2/5 630/2/5
f 640/2/5 638/2/5 639/2/5
f 641/2/5 639/2/5 629/2/5
f 642/2/5 638/2/5 640/2/5
f 643/2/5 641/2/5 629/2/5
f 643/2/5 642/2/5 641/2/5
f 644/2/5 638/2/5 642/2/5
f 644/2/5 642/2/5 643/2/5
f 653/1/5 646/1/5 645/1/5
f 654/1/5 646/1/5 653/1/5
f 655/1/5 648/1/5 647/1/5
f 656/1/5 648/1/5 655/1/5
f 657/1/5 650/1/5 649/1/5
f 658/1/5 650/1/5 657/1/5
f 659/1/5 652/1/5 651/1/5
f 660/1/5 652/1/5 659/1/5
f 666/2/5 662/2/5 661/2/5
f 667/2/5 664/2/5 663/2/5
f 669/3/5 666/3/5 665/3/5
f 670/2/5 662/2/5 666/2/5
f 670/3/5 666/3/5 669/3/5
f 671/3/5 668/3/5 667/3/5
f 671/2/5 667/2/5 663/2/5
f 672/3/5 668/3/5 671/3/5
f 673/2/5 662/2/5 670/2/5
f 674/2/5 662/2/5 673/2/5
f 675/2/5 671/2/5 663/2/5
f 676/2/5 671/2/5 675/2/5
f 681/1/5 678/1/5 677/1/5
f 682/1/5 678/1/5 681/1/5
f 683/1/5 680/1/5 679/1/5
f 684/1/5 680/1/5 683/1/5
f 689/2/5 686/2/5 685/2/5
f 690/2/5 686/2/5 689/2/5
f 691/2/5 688/2/5 687/2/5
f 692/2/5 688/2/5 691/2/5
f 697/2/5 694/2/5 693/2/5
f 698/2/5 694/2/5 697/2/5
f 699/2/5 696/2/5 695/2/5
f 700/2/5 696/2/5 699/2/5
f 705/2/5 702/2/5 701/2/5
f 706/2/5 702/2/5 705/2/5
f 707/2/5 704/2/5 703/2/5
f 708/2/5 704/2/5 707/2/5
f 713/3/5 710/3/5 709/3/5
f 714/3/5 710/3/5 713/3/5
f 715/3/5 712/3/5 711/3/5
f 716/3/5 712/3/5 715/3/5
f 725/3/5 722/3/5 721/3/5
f 726/3/5 722/3/5 725/3/5
f 727/3/5 724/3/5 723/3/5
f 728/3/5 724/3/5 727/3/5
f 729/2/5 718/2/5 717/2/5
f 730/2/5 718/2/5 729/2/5
f 731/2/5 720/2/5 719/2/5
f 732/2/5 720/2/5 731/2/5
f 737/2/5 734/2/5 733/2/5
f 738/2/5 734/2/5 737/2/5
f 739/2/5 736/2/5 735/2/5
f 740/2/5 736/2/5 739/2/5
f 746/2/5 742/2/5 741/2/5
f 747/2/5 744/2/5 743/2/5
f 749/3/5 746/3/5 745/3/5
f 750/2/5 742/2/5 746/2/5
f 750/3/5 746/3/5 749/3/5
f 751/3/5 748/3/5 747/3/5
f 751/2/5 747/2/5 743/2/5
f 752/3/5 748/3/5 751/3/5
f 753/2/5 742/2/5 750/2/5
f 754/2/5 742/2/5 753/2/5
f 755/2/5 751/2/5 743/2/5
f 756/2/5 751/2/5 755/2/5
f 757/2/6 758/2/6 761/2/6
f 761/2/6 758/2/6 762/2/6
f 759/2/6 760/2/6 763/2/6
f 763/2/6 760/2/6 764/2/6
f 757/2/6 761/2/6 765/2/6
f 764/2/6 760/2/6 768/2/6
f 765/2/6 766/2/6 769/2/6
f 757/2/6 765/2/6 769/2/6
f 769/2/6 766/2/6 770/2/6
f 767/2/6 768/2/6 771/2/6
f 768/2/6 760/2/6 772/2/6
f 771/2/6 768/2/6 772/2/6
f 773/1/6 774/1/6 777/1/6
f 777/1/6 774/1/6 778/1/6
f 775/1/6 776/1/6 779/1/6
f 779/1/6 776/1/6 780/1/6
f 781/1/6 782/1/6 785/1/6
f 785/1/6 782/1/6 786/1/6
f 783/1/6 784/1/6 787/1/6
f 787/1/6 784/1/6 788/1/6
f 789/1/6 790/1/6 793/1/6
f 793/1/6 790/1/6 794/1/6
f 791/1/6 792/1/6 795/1/6
f 795/1/6 792/1/6 796/1/6
f 797/1/6 798/1/6 801/1/6
f 801/1/6 798/1/6 802/1/6
f 799/1/6 800/1/6 803/1/6
f 803/1/6 800/1/6 804/1/6
f 805/2/6 806/2/6 810/2/6
f 807/2/6 808/2/6 811/2/6
f 813/3/6 814/3/6 817/3/6
f 817/3/6 814/3/6 818/3/6
f 815/3/6 816/3/6 819/3/6
f 819/3/6 816/3/6 820/3/6
f 809/2/6 810/2/6 821/2/6
f 810/2/6 806/2/6 822/2/6
f 821/2/6 810/2/6 822/2/6
f 807/2/6 811/2/6 823/2/6
f 811/2/6 812/2/6 823/2/6
f 823/2/6 812/2/6 824/2/6
f 822/2/6 806/2/6 825/2/6
f 825/2/6 806/2/6 826/2/6
f 807/2/6 823/2/6 827/2/6
f 827/2/6 823/2/6 828/2/6
f 831/2/6 832/2/6 835/2/6
f 835/2/6 832/2/6 836/2/6
f 833/2/6 834/2/6 837/2/6
f 837/2/6 834/2/6 838/2/6
f 829/1/6 830/1/6 839/1/6
f 839/1/6 830/1/6 840/1/6
f 841/2/6 842/2/6 846/2/6
f 843/2/6 844/2/6 847/2/6
f 845/3/6 846/3/6 849/3/6
f 846/2/6 842/2/6 850/2/6
f 849/3/6 846/3/6 850/3/6
f 847/3/6 848/3/6 851/3/6
f 843/2/6 847/2/6 851/2/6
f 851/3/6 848/3/6 852/3/6
f 850/2/6 842/2/6 853/2/6
f 853/2/6 842/2/6 854/2/6
f 843/2/6 851/2/6 855/2/6
f 855/2/6 851/2/6 856/2/6
f 857/2/6 858/2/6 861/2/6
f 861/2/6 858/2/6 862/2/6
f 859/2/6 860/2/6 863/2/6
f 863/2/6 860/2/6 864/2/6
f 865/2/6 866/2/6 869/2/6
f 869/2/6 866/2/6 870/2/6
f 867/2/6 868/2/6 871/2/6
f 871/2/6 868/2/6 872/2/6
f 873/2/6 874/2/6 878/2/6
f 875/2/6 876/2/6 879/2/6
f 877/3/6 878/3/6 881/3/6
f 878/2/6 874/2/6 882/2/6
f 881/3/6 878/3/6 882/3/6
f 879/3/6 880/3/6 883/3/6
f 875/2/6 879/2/6 883/2/6
f 883/3/6 880/3/6 884/3/6
f 882/2/6 874/2/6 885/2/6
f 885/2/6 874/2/6 886/2/6
f 875/2/6 883/2/6 887/2/6
f 887/2/6 883/2/6 888/2/6
